<svg width="213" height="41" viewBox="0 0 213 41" fill="none" xmlns="http://www.w3.org/2000/svg">
<g clip-path="url(#clip0_320_3296)">
<path d="M26.006 30.8054C25.5613 30.9684 25.1656 31.1197 24.74 31.2659L23.6445 31.6442L23.3286 29.946L21.8698 22.3302L21.7036 21.4732L19.9688 12.3147L20.6429 11.6132L22.2572 9.95318L22.9122 9.27656C23.0344 9.15021 23.1416 9.04548 23.2646 8.92163L23.7833 8.39795L24.4765 7.71218L26.0085 10.2416L28.3468 14.1243C28.4407 14.2797 28.5512 14.4028 28.6144 14.5765L29.3584 15.8616L23.8897 13.9514L28.9403 26.6609L29.8696 29.0249C29.9228 29.1064 29.9976 29.2311 29.9668 29.3408L28.3085 29.9634L26.0085 30.8054H26.006Z" fill="#E2BC74"/>
<path d="M12.9157 30.4954L10.1294 29.4788C10.0047 29.4331 9.85094 29.4455 9.80023 29.2967L12.7129 21.9428L12.8883 21.4815L14.2797 18.0277L15.0918 15.9588L15.8857 13.9954C15.756 13.9098 15.6621 14.0146 15.5399 14.0578L10.4153 15.8616L11.3014 14.3712L13.707 10.3405C13.8583 10.087 13.9955 9.87004 14.1467 9.62067L14.8982 8.37715C15.027 8.16435 15.1201 7.95655 15.3113 7.7504C15.9189 8.33476 16.49 8.91745 17.0785 9.51594L18.6878 11.1526L19.8141 12.3072L18.7085 18.1233L17.8723 22.5214L17.7485 23.1099L17.2855 25.5504L17.0128 26.971L16.8067 27.9269L16.5631 29.256C16.4966 29.6176 16.4359 29.9642 16.3686 30.3208L16.1184 31.6433L12.914 30.4945L12.9157 30.4954Z" fill="#E2BC74"/>
<path d="M18.5248 39.525C15.3645 39.2931 12.4918 38.3987 9.7969 36.8335C9.2566 36.5193 8.77948 36.1885 8.26827 35.8269C7.04553 34.9608 5.80284 33.8078 4.82115 32.6674C3.52776 31.1645 2.4829 29.512 1.6791 27.7016C1.53696 27.3808 1.40729 27.1156 1.29757 26.7864L0.790516 25.2653C0.724017 25.0666 0.676637 24.8779 0.630088 24.6701L0.501247 24.0883C0.176236 22.6137 -0.0656523 20.6561 0.0141458 19.1591L0.0498888 18.4924L0.0864629 17.913C0.14548 16.9837 0.306739 16.0976 0.520365 15.1858C1.0856 12.7794 2.06645 10.5276 3.45295 8.48688C4.59506 6.80613 6.08379 5.22097 7.68807 3.98909C7.80112 3.90181 7.87011 3.79458 8.00726 3.71977C8.09787 3.67073 8.18764 3.60589 8.28323 3.5369C10.7636 1.74892 13.5175 0.614291 16.5415 0.0748218C16.5789 0.0681719 16.6238 0.0856278 16.6462 0.0847966C16.6737 0.0831341 16.6861 0.180388 16.6546 0.187869L16.2905 0.277642C14.6613 0.680789 13.0537 1.1388 11.5508 1.90021C9.8767 2.74806 8.37882 3.82367 7.03306 5.11624C6.86016 5.22513 6.7787 5.37724 6.63739 5.52022C5.3548 6.82442 4.29332 8.29653 3.45212 9.92491C3.34904 10.1252 3.03151 10.6481 3.00741 10.8592C2.07892 12.934 1.54195 15.1351 1.42474 17.4135C1.38983 18.0951 1.37653 18.7335 1.42308 19.4068L1.45467 19.8714C1.59182 21.8639 2.0889 23.7749 2.85031 25.6144C3.11547 26.2553 3.42386 26.823 3.74055 27.429C3.8802 27.6958 4.03481 27.9227 4.19191 28.1821C4.82864 29.2319 5.58256 30.1695 6.41047 31.0723C6.69226 31.3798 6.95991 31.6533 7.26747 31.9268L7.73462 32.3432C8.92827 33.4055 10.2557 34.2866 11.6963 34.984L12.1784 35.2176C13.3438 35.782 14.5673 36.1602 15.8291 36.4561L16.9305 36.6773L18.5223 39.525H18.5248Z" fill="#E2BC74"/>
<path d="M37.0155 29.8121C36.1975 31.3067 34.619 33.1586 33.3572 34.3182C30.0423 37.3647 26.005 39.1003 21.5272 39.5134C21.4548 39.52 21.4291 39.5325 21.3917 39.4835C21.3584 39.4402 21.4099 39.402 21.4407 39.348L22.4473 37.5791C22.6277 37.2624 22.7615 36.9507 22.9868 36.649C29.6366 35.5069 35.1618 30.8337 37.3762 24.4448C37.8542 23.0667 38.2781 21.1415 38.343 19.6869C38.382 18.8058 38.397 17.9421 38.3371 17.0594C38.185 14.8458 37.6198 12.7162 36.6996 10.6979C36.0404 9.2516 35.2076 7.93078 34.2018 6.69474C33.5534 5.89842 32.8402 5.18356 32.0713 4.50694L31.7812 4.25175C30.3648 3.00407 28.2784 1.80045 26.4987 1.13048C25.3899 0.712367 24.2586 0.398993 23.0907 0.193679C23.0425 0.185366 23.0649 0.131336 23.0591 0.114712C23.0184 -0.0132978 23.3891 0.122193 23.616 0.0640066C23.6376 0.058188 23.6543 -0.00332306 23.6709 0.00332678C23.7283 0.0249388 23.7158 0.148792 23.7565 0.172898C23.8579 0.234409 23.9901 0.061513 24.0757 0.156273C24.1148 0.199497 24.1405 0.237734 24.1738 0.257683C24.2253 0.28927 24.3134 0.201991 24.3508 0.222772C24.4523 0.279295 24.5312 0.350781 24.6526 0.377381C25.1305 0.482947 25.5728 0.617606 26.0366 0.774709C28.8129 1.71732 30.9284 2.91347 33.1278 4.86021L33.3763 5.08049C34.575 6.14114 35.6523 7.33478 36.4719 8.70715L36.8334 9.31228L37.1809 9.8742C37.5441 10.461 37.5059 10.5383 37.7303 10.9365C38.7902 12.8126 39.6713 16.3511 39.7436 18.4916L39.7635 19.0892C39.7777 19.5007 39.7802 20.5514 39.7427 20.952C39.633 22.1149 39.5133 23.2537 39.2141 24.3842L38.9689 25.3102C38.6763 26.4149 37.9947 28.0225 37.4377 29.0407L37.0146 29.8138L37.0155 29.8121Z" fill="#E2BC74"/>
<path d="M20.7523 31.4688C19.8962 31.8835 18.8945 31.586 18.4207 30.8728C18.3168 30.7165 18.188 30.5045 18.1523 30.3233C18.0592 29.8537 18.1315 29.3957 18.1863 28.9135L18.9145 22.533L19.1863 20.2297L19.3135 19.1549L19.3933 18.4949L19.7033 15.8857C19.7848 15.1991 19.8031 14.5441 19.9502 13.8467L20.4573 18.0194L20.5678 19.036L20.9053 21.8664L21.6609 28.5071C21.7315 29.1247 21.8321 29.6849 21.7232 30.3059C21.6318 30.8254 21.2203 31.2418 20.7523 31.4688Z" fill="#E2BC74"/>
<path d="M22.0036 35.7155L22.4591 36.2043L20.1416 40.3405C20.0817 40.4477 19.9679 40.6555 19.8332 40.5067C19.7684 40.4352 19.6911 40.2773 19.6354 40.1776L18.544 38.2325L17.4052 36.1993C18.603 35.1328 18.8349 33.4886 18.5606 31.9949C18.5207 31.778 18.5024 31.5926 18.4043 31.3806C18.583 31.4106 18.6171 31.5577 18.7293 31.6483C19.3004 32.108 19.9695 32.2077 20.6619 31.95C20.9762 31.8328 21.174 31.5868 21.4483 31.3624L21.2937 32.0689C21.2438 32.2975 21.2463 32.5186 21.2264 32.7497C21.1474 33.6599 21.3918 35.0597 22.0036 35.7147V35.7155ZM19.9729 40.4228L20.0053 36.3331C20.0061 36.2167 20.0876 36.1419 20.1873 36.1054C20.5223 35.9832 20.7575 35.6789 20.7808 35.3423C20.8041 35.0056 20.6129 34.6416 20.292 34.4986C20.0177 34.3764 19.7725 34.3506 19.5057 34.4753C19.2854 34.5784 19.1159 34.7646 19.0327 35.0489C18.8765 35.5825 19.258 36.1411 19.8282 36.1877C19.8399 36.4761 19.849 36.7097 19.854 36.9715L19.8872 38.8343C19.987 39.3663 19.8116 39.8958 19.9745 40.4228H19.9729Z" fill="#E2BC74"/>
<path d="M19.9729 40.4228C19.81 39.8958 19.9862 39.3671 19.8857 38.8343L19.8524 36.9715C19.8474 36.7097 19.8391 36.4761 19.8266 36.1876C19.2564 36.1411 18.8749 35.5825 19.0312 35.0489C19.1143 34.7646 19.2838 34.5784 19.5041 34.4753C19.7709 34.3506 20.0162 34.3764 20.2905 34.4986C20.6113 34.6407 20.8042 34.9898 20.7792 35.3423C20.7543 35.6947 20.5207 35.984 20.1857 36.1054C20.086 36.1419 20.0045 36.2167 20.0037 36.3331L19.9713 40.4228H19.9729Z" fill="#042530"/>
</g>
<path d="M52.0698 20.3422C51.2076 20.3422 50.4156 20.1889 49.6938 19.8823C48.9721 19.5758 48.3941 19.1127 47.9597 18.4932C47.5254 17.8736 47.3083 17.0848 47.3083 16.1268V15.9639H50.3166V16.1268C50.3166 16.5036 50.39 16.8261 50.5369 17.0944C50.6838 17.3626 50.8882 17.5702 51.1501 17.7171C51.4119 17.8576 51.7185 17.9279 52.0698 17.9279C52.4403 17.9279 52.7532 17.8481 53.0087 17.6884C53.2706 17.5287 53.4686 17.2956 53.6027 16.989C53.7368 16.676 53.8039 16.2928 53.8039 15.8393V5.87552H56.7835V15.8393C56.7835 16.7527 56.5919 17.5479 56.2086 18.2249C55.8254 18.9019 55.2793 19.4257 54.5703 19.7961C53.8678 20.1602 53.0343 20.3422 52.0698 20.3422ZM65.0611 20.3422C63.7965 20.3422 62.6596 20.0548 61.6504 19.48C60.6412 18.9051 59.8429 18.0716 59.2553 16.9794C58.6676 15.8872 58.3738 14.5683 58.3738 13.0226C58.3738 11.4642 58.6676 10.1389 59.2553 9.0467C59.8429 7.94812 60.6412 7.11461 61.6504 6.54616C62.6596 5.97133 63.7965 5.68391 65.0611 5.68391C66.3257 5.68391 67.4626 5.97133 68.4718 6.54616C69.4809 7.11461 70.2761 7.94812 70.8573 9.0467C71.445 10.1389 71.7388 11.4642 71.7388 13.0226C71.7388 14.5747 71.445 15.8968 70.8573 16.989C70.2761 18.0812 69.4809 18.9147 68.4718 19.4895C67.4626 20.058 66.3257 20.3422 65.0611 20.3422ZM65.0611 17.6788C65.7956 17.6788 66.4343 17.5 66.9772 17.1423C67.5201 16.7846 67.9385 16.2609 68.2323 15.5711C68.5325 14.8749 68.6826 14.0254 68.6826 13.0226C68.6826 12.0135 68.5325 11.1608 68.2323 10.4646C67.9385 9.76843 67.5201 9.2415 66.9772 8.88383C66.4343 8.52615 65.7956 8.34731 65.0611 8.34731C64.333 8.34731 63.6975 8.52615 63.1546 8.88383C62.6117 9.2415 62.1869 9.76843 61.8803 10.4646C61.5801 11.1608 61.43 12.0135 61.43 13.0226C61.43 14.0254 61.5801 14.8749 61.8803 15.5711C62.1869 16.2609 62.6117 16.7846 63.1546 17.1423C63.6975 17.5 64.333 17.6788 65.0611 17.6788ZM73.3291 20.1506V5.87552H76.3374V11.7676H82.469V5.87552H85.4773V20.1506H82.469V14.249H76.3374V20.1506H73.3291ZM99.2542 5.87552V20.1506H96.6483L90.4496 11.1736H90.3251V20.1506H87.3168V5.87552H89.961L96.1214 14.8525H96.2459V5.87552H99.2542ZM126.348 5.87552H130.075L134.003 15.4657H134.166L138.103 5.87552H141.84V20.1506H138.889V10.8574H138.774L135.066 20.0835H133.074L129.395 10.8383H129.28V20.1506H126.348V5.87552ZM146.142 20.1506H142.913L147.837 5.87552H151.727L156.642 20.1506H153.423L149.84 9.13292H149.725L146.142 20.1506ZM145.95 14.5364H153.586V16.8932H145.95V14.5364ZM157.715 20.1506V5.87552H163.339C164.418 5.87552 165.338 6.06713 166.098 6.45036C166.864 6.83358 167.449 7.37648 167.851 8.07906C168.26 8.77525 168.464 9.59598 168.464 10.5413C168.464 11.4866 168.26 12.3009 167.851 12.9843C167.442 13.6677 166.848 14.1915 166.069 14.5555C165.296 14.9132 164.361 15.092 163.262 15.092H159.497V12.6682H162.774C163.355 12.6682 163.834 12.5883 164.211 12.4286C164.594 12.269 164.878 12.0326 165.063 11.7197C165.255 11.4067 165.351 11.0139 165.351 10.5413C165.351 10.0622 165.255 9.66305 165.063 9.34369C164.878 9.01795 164.594 8.77205 164.211 8.60599C163.827 8.43354 163.345 8.34731 162.764 8.34731H160.723V20.1506H157.715ZM165.638 20.1506L162.16 13.655H165.418L168.972 20.1506H165.638ZM169.413 8.36647V5.87552H181.139V8.36647H176.771V20.1506H173.791V8.36647H169.413ZM185.441 5.87552V20.1506H182.433V5.87552H185.441ZM199.218 5.87552V20.1506H196.612L190.414 11.1736H190.289V20.1506H187.281V5.87552H189.925L196.085 14.8525H196.21V5.87552H199.218ZM201.058 20.1506V5.87552H210.676V8.36647H204.066V11.7197H210.178V14.1627H204.066V17.6596H210.696V20.1506H201.058Z" fill="white"/>
<path d="M107.589 5.87552L111.029 16.7207H111.163L114.621 5.87552H117.956L113.041 20.1506H109.151L104.227 5.87552H107.589ZM119.201 20.3326C118.728 20.3326 118.329 20.173 118.003 19.8536C117.678 19.5342 117.515 19.1382 117.515 18.6656C117.515 18.193 117.678 17.797 118.003 17.4776C118.329 17.1583 118.728 16.9986 119.201 16.9986C119.674 16.9986 120.073 17.1583 120.399 17.4776C120.724 17.797 120.887 18.193 120.887 18.6656C120.887 19.1382 120.724 19.5342 120.399 19.8536C120.073 20.173 119.674 20.3326 119.201 20.3326Z" fill="#CEB17D"/>
<path d="M48.5449 27.5931V34.1392H47.7541V27.5931H48.5449ZM52.224 27.5931H53.173L55.396 33.0233H55.4751L57.6981 27.5931H58.6778V34.1392H57.9002V29.166H57.8387L55.7782 34.1392H55.0665L53.0324 29.166H52.9709V34.1392H52.224V27.5931ZM62.3613 27.5931H63.3103L65.5333 33.0233H65.6124L67.8354 27.5931H68.8151V34.1392H68.0375V29.166H67.976L65.9155 34.1392H65.2038L63.1697 29.166H63.1082V34.1392H62.3613V27.5931ZM73.2895 27.5931V34.1392H72.4987V27.5931H73.2895ZM79.631 34.2271C79.051 34.2271 78.5414 34.0909 78.1021 33.8185C77.6657 33.5461 77.3245 33.1595 77.0784 32.6587C76.8353 32.1549 76.7138 31.5589 76.7138 30.8706C76.7138 30.1794 76.8353 29.5819 77.0784 29.0781C77.3245 28.5743 77.6627 28.1862 78.0933 27.9139C78.5238 27.6415 79.0188 27.5053 79.5782 27.5053C79.9238 27.5053 80.246 27.5565 80.5448 27.659C80.8435 27.7616 81.11 27.908 81.3444 28.0984C81.5787 28.2888 81.7734 28.5143 81.9287 28.775C82.0868 29.0356 82.1967 29.3241 82.2582 29.6404H81.441C81.3707 29.4237 81.2785 29.2304 81.1642 29.0605C81.0529 28.8877 80.9182 28.7413 80.76 28.6212C80.6019 28.4982 80.4247 28.4045 80.2284 28.34C80.0322 28.2756 79.8155 28.2434 79.5782 28.2434C79.1916 28.2434 78.8387 28.3444 78.5194 28.5465C78.2031 28.7457 77.9498 29.0415 77.7594 29.434C77.5719 29.8235 77.4782 30.3024 77.4782 30.8706C77.4782 31.4358 77.5734 31.9133 77.7638 32.3028C77.9542 32.6923 78.2119 32.9882 78.537 33.1902C78.8621 33.3894 79.2268 33.489 79.631 33.489C80.0059 33.489 80.3354 33.4084 80.6195 33.2474C80.9036 33.0863 81.1261 32.8593 81.2872 32.5664C81.4483 32.2706 81.5289 31.922 81.5289 31.5208L81.7749 31.5735H79.8067V30.8706H82.3021V31.5735C82.3021 32.1124 82.1879 32.581 81.9594 32.9794C81.731 33.3748 81.4146 33.6823 81.0105 33.902C80.6092 34.1187 80.1494 34.2271 79.631 34.2271ZM85.7528 34.1392V27.5931H87.967C88.4796 27.5931 88.8984 27.681 89.2235 27.8567C89.5516 28.0296 89.7946 28.2683 89.9528 28.5729C90.111 28.8745 90.19 29.2187 90.19 29.6053C90.19 29.989 90.111 30.3302 89.9528 30.6289C89.7976 30.9277 89.5559 31.162 89.2279 31.3319C88.9028 31.4988 88.4854 31.5823 87.9758 31.5823H86.1921V30.8706H87.9495C88.3009 30.8706 88.5836 30.8193 88.7974 30.7168C89.0112 30.6143 89.1664 30.4693 89.2631 30.2819C89.3597 30.0915 89.408 29.866 89.408 29.6053C89.408 29.3417 89.3582 29.1118 89.2587 28.9155C89.162 28.7193 89.0068 28.567 88.793 28.4586C88.5792 28.3503 88.2951 28.2961 87.9407 28.2961H86.5436V34.1392H85.7528ZM89.5223 34.1392L87.9407 31.1957H88.8369L90.4449 34.1392H89.5223ZM93.878 34.1392H93.0432L95.4508 27.5931H96.2679L98.6667 34.1392H97.8408L95.8813 28.63H95.8286L93.878 34.1392ZM94.1855 31.5823H97.5332V32.2852H94.1855V31.5823ZM100.659 28.2961V27.5931H105.571V28.2961H103.514V34.1392H102.724V28.2961H100.659ZM109.68 27.5931V34.1392H108.889V27.5931H109.68ZM116 34.2271C115.443 34.2271 114.947 34.0909 114.51 33.8185C114.074 33.5461 113.73 33.1595 113.478 32.6587C113.229 32.1549 113.105 31.5589 113.105 30.8706C113.105 30.1794 113.229 29.5819 113.478 29.0781C113.73 28.5743 114.074 28.1862 114.51 27.9139C114.947 27.6415 115.443 27.5053 116 27.5053C116.559 27.5053 117.056 27.6415 117.489 27.9139C117.923 28.1862 118.264 28.5743 118.513 29.0781C118.762 29.5819 118.886 30.1794 118.886 30.8706C118.886 31.5589 118.762 32.1549 118.513 32.6587C118.264 33.1595 117.923 33.5461 117.489 33.8185C117.056 34.0909 116.559 34.2271 116 34.2271ZM116 33.489C116.395 33.489 116.752 33.3894 117.072 33.1902C117.394 32.9882 117.649 32.6923 117.836 32.3028C118.027 31.9133 118.122 31.4358 118.122 30.8706C118.122 30.3024 118.027 29.8235 117.836 29.434C117.649 29.0415 117.394 28.7457 117.072 28.5465C116.752 28.3444 116.395 28.2434 116 28.2434C115.604 28.2434 115.246 28.3444 114.923 28.5465C114.601 28.7457 114.345 29.0415 114.155 29.434C113.964 29.8235 113.869 30.3024 113.869 30.8706C113.869 31.4358 113.964 31.9133 114.155 32.3028C114.345 32.6923 114.601 32.9882 114.923 33.1902C115.246 33.3894 115.604 33.489 116 33.489ZM127.512 27.5931V34.1392H126.73L123.172 28.999H123.101V34.1392H122.311V27.5931H123.075L126.66 32.7421H126.721V27.5931H127.512ZM135.819 34.1392V27.5931H136.61V33.4363H139.659V34.1392H135.819ZM143.663 34.1392H142.829L145.236 27.5931H146.053L148.452 34.1392H147.626L145.667 28.63H145.614L143.663 34.1392ZM143.971 31.5823H147.319V32.2852H143.971V31.5823ZM152.276 34.1392L150.493 27.5931H151.292L152.663 32.9266H152.724L154.122 27.5931H155.018L156.406 32.9266H156.476L157.838 27.5931H158.647L156.854 34.1392H156.037L154.596 28.9287H154.543L153.102 34.1392H152.276ZM169.023 34.2271C168.467 34.2271 167.97 34.0909 167.534 33.8185C167.097 33.5461 166.755 33.1595 166.506 32.6587C166.257 32.1549 166.132 31.5589 166.132 30.8706C166.132 30.1794 166.257 29.5819 166.506 29.0781C166.755 28.5743 167.097 28.1862 167.534 27.9139C167.97 27.6415 168.467 27.5053 169.023 27.5053C169.351 27.5053 169.66 27.5536 169.95 27.6503C170.243 27.7469 170.507 27.8875 170.741 28.072C170.975 28.2536 171.17 28.4777 171.325 28.7442C171.483 29.0078 171.592 29.3065 171.65 29.6404H170.86C170.813 29.412 170.731 29.2114 170.614 29.0386C170.499 28.8657 170.359 28.7208 170.192 28.6036C170.028 28.4835 169.846 28.3942 169.647 28.3356C169.448 28.2741 169.24 28.2434 169.023 28.2434C168.628 28.2434 168.269 28.3444 167.947 28.5465C167.625 28.7457 167.368 29.0415 167.178 29.434C166.99 29.8235 166.897 30.3024 166.897 30.8706C166.897 31.4358 166.99 31.9133 167.178 32.3028C167.368 32.6923 167.625 32.9882 167.947 33.1902C168.269 33.3894 168.628 33.489 169.023 33.489C169.24 33.489 169.448 33.4597 169.647 33.4011C169.846 33.3396 170.028 33.2503 170.192 33.1331C170.359 33.013 170.499 32.8666 170.614 32.6938C170.731 32.521 170.813 32.3204 170.86 32.0919H171.65C171.592 32.4287 171.483 32.7289 171.325 32.9925C171.17 33.2561 170.975 33.4802 170.741 33.6647C170.507 33.8463 170.243 33.9854 169.95 34.0821C169.66 34.1787 169.351 34.2271 169.023 34.2271ZM175.031 34.1392V27.5931H178.985V28.2961H175.822V30.484H178.774V31.1869H175.822V33.4363H179.029V34.1392H175.031ZM187.707 27.5931V34.1392H186.925L183.367 28.999H183.297V34.1392H182.506V27.5931H183.27L186.855 32.7421H186.917V27.5931H187.707ZM191.026 28.2961V27.5931H195.938V28.2961H193.882V34.1392H193.091V28.2961H191.026ZM199.257 34.1392V27.5931H203.211V28.2961H200.048V30.484H203V31.1869H200.048V33.4363H203.255V34.1392H199.257ZM206.732 34.1392V27.5931H208.946C209.459 27.5931 209.878 27.681 210.203 27.8567C210.531 28.0296 210.774 28.2683 210.932 28.5729C211.09 28.8745 211.169 29.2187 211.169 29.6053C211.169 29.989 211.09 30.3302 210.932 30.6289C210.777 30.9277 210.535 31.162 210.207 31.3319C209.882 31.4988 209.465 31.5823 208.955 31.5823H207.171V30.8706H208.929C209.28 30.8706 209.563 30.8193 209.777 30.7168C209.99 30.6143 210.146 30.4693 210.242 30.2819C210.339 30.0915 210.387 29.866 210.387 29.6053C210.387 29.3417 210.337 29.1118 210.238 28.9155C210.141 28.7193 209.986 28.567 209.772 28.4586C209.558 28.3503 209.274 28.2961 208.92 28.2961H207.523V34.1392H206.732ZM210.501 34.1392L208.92 31.1957H209.816L211.424 34.1392H210.501Z" fill="#CEB17D"/>
<defs>
<clipPath id="clip0_320_3296">
<rect width="39.7752" height="40.5583" fill="white"/>
</clipPath>
</defs>
</svg>
